Table "auto_chop" {
  "id" INT(11) [pk, not null, increment]
  "date" DATE [default: NULL]
  "crm_id" INT(11) [not null]
  "marketing" VARCHAR(10) [default: NULL]
  "rolling" BIGINT(20) [default: NULL]
  "expired" BIGINT(20) [default: NULL]
  "created_at" DATETIME [default: `utc_timestamp()`]

Indexes {
  crm_id [name: "crm_id"]
  marketing [name: "marketing"]
}
}

Table "brokers" {
  "id" INT(11) [pk, not null, increment]
  "nickname" VARCHAR(50) [not null]
  "codename" VARCHAR(50) [not null]
  "realname" VARCHAR(50) [not null]
  "ims" VARCHAR(50) [not null]
  "parent_id" INT(11) [default: NULL]
  "icon" VARCHAR(75) [default: NULL]
  "status" TINYINT(4) [not null, default: "1"]

Indexes {
  parent_id [name: "parent_id"]
}
}

Table "cifeicom_commission" {
  "id" INT(11) [pk, not null, increment]
  "gid" INT(11) [not null]
  "minlot" DOUBLE [not null]
  "maxlot" DOUBLE [not null]
  "usdlot" DOUBLE [not null]
  "idrate" DOUBLE [not null]
}

Table "cifeicom_settings" {
  "name" VARCHAR(20) [pk, not null]
  "value" TEXT [not null]
}

Table "configs" {
  "cfg" VARCHAR(64) [pk, not null]
  "value" VARCHAR(255) [not null]
}

Table "crm_logs_details" {
  "id" INT(11) [pk, not null, increment]
  "desc" VARCHAR(50) [not null]
  "desc_pas" VARCHAR(50) [default: NULL]
}

Table "crm_logs" {
  "id" BIGINT(20) [pk, not null, increment]
  "event" BIGINT(20) [not null]
  "source_id" BIGINT(20) [not null, note: 'subject']
  "details" INT(11) [not null, note: 'action']
  "action_id" VARCHAR(30) [default: NULL, note: 'object']
  "target_id" BIGINT(20) [default: NULL, note: 'target']
  "unread" TINYINT(1) [not null, default: "0", note: '0=unread; 1=read']

Indexes {
  details [name: "details"]
  target_id [name: "target_id"]
  source_id [name: "source_id"]
}
}

Table "crm_timelines" {
  "id" INT(11) [pk, not null, increment]
  "event" VARCHAR(50) [not null]
  "query" MEDIUMTEXT [not null, default: ""]
  "icon" MEDIUMTEXT [not null, default: ""]
  "template" MEDIUMTEXT [not null, default: ""]
}

Table "crm" {
  "id" INT(11) [pk, not null, increment]
}

Table "customer_dtl_tags" {
  "id" INT(11) [pk, not null, increment]
  "detail_id" INT(11) [not null]
  "tag_id" INT(11) [not null]

Indexes {
  (detail_id, tag_id) [unique, name: "customer_dtl_tag_id"]
}
}

Table "customer_dtl" {
  "id" INT(11) [pk, not null, increment]
  "customer" INT(11) [not null]
  "method" VARCHAR(20) [default: NULL]
  "location" VARCHAR(50) [default: NULL]
  "dtime" BIGINT(20) [not null]
  "response" VARCHAR(20) [default: NULL]
  "phase" TINYINT(4) [not null, note: '1: follow up , 2: closing , 3: refused , 4: invalid , 5 : maintain']
  "details" TEXT [not null]
  "user" INT(11) [not null]
  "updated" BIGINT(20) [not null]
  "tags" VARCHAR(20) [default: NULL]

Indexes {
  phase [name: "idx_phase"]
  customer [name: "customer"]
  user [name: "user"]
}
}

Table "customer_tags" {
  "id" INT(11) [pk, not null, increment]
  "crm_id" INT(11) [not null]
  "tag_id" INT(11) [not null]
}

Table "customer" {
  "id" INT(11) [pk, not null]
  "phone" VARCHAR(50) [default: NULL]
  "event" INT(11) [not null, note: 'time created in CRM']
  "fullname" VARCHAR(50) [not null]
  "nickname" VARCHAR(50) [default: NULL]
  "email" VARCHAR(255) [default: NULL]
  "mobile" VARCHAR(50) [default: NULL]
  "mobile2" VARCHAR(200) [default: NULL]
  "bbm" VARCHAR(20) [default: NULL]
  "address" TEXT [default: NULL]
  "city" VARCHAR(50) [default: NULL]
  "country" VARCHAR(50) [default: NULL]
  "profession" VARCHAR(50) [default: NULL]
  "birthday" DATE [default: NULL]
  "religion" VARCHAR(20) [default: NULL]
  "info" TEXT [default: NULL]
  "trading" TEXT [default: NULL]
  "marketing" VARCHAR(10) [default: NULL]
  "maintenance" VARCHAR(10) [default: NULL]
  "investor" TINYINT(4) [not null, default: "0", note: '0:none, 1:closed, 2:declined, 3:invalid']
  "source" VARCHAR(20) [default: NULL, note: 'brokers (0:manual)']
  "prospect" TINYINT(4) [default: NULL, note: '1: alot, 2: hot']
  "take_over" TINYINT(4) [default: "0"]
  "rolling" BIGINT(20) [default: NULL, note: 'save unixtime when opportunity is assigned/rolling']
  "expired" BIGINT(20) [default: NULL, note: 'save unixtime for expired data']
  "merge_id" INT(11) [default: NULL]
  "noteadm" TEXT [default: NULL]
  "notemkt" TEXT [default: NULL]
  "pin" TINYINT(4) [default: NULL, note: 'pin priority client']
  "MODIFY_TIME" BIGINT(20) [not null]

Indexes {
  (email, phone, source, merge_id) [unique, name: "unik_customer"]
  marketing [name: "idx_marketing"]
  fullname [name: "fullname"]
  phone [name: "phone"]
  mobile [name: "mobile"]
  maintenance [name: "maintenance"]
  rolling [name: "rolling"]
  expired [name: "expired"]
  prospect [name: "prospect"]
  source [name: "source"]
  pin [name: "pin"]
  mobile2 [name: "mobile2"]
  take_over [name: "customer_take_over"]
}
}

Table "email_support" {
  "id" INT(11) [pk, not null, increment]
  "source" VARCHAR(20) [not null]
  "email" VARCHAR(50) [not null]
  "status" TINYINT(3) [not null, default: "1"]

Indexes {
  source [name: "source"]
}
}

Table "error_code" {
  "id" INT(10) [pk, not null, increment]
  "file" VARCHAR(50) [not null]
  "message" TEXT [not null]
}

Table "grouping_details" {
  "id" BIGINT(20) [pk, not null, increment]
  "gid" INT(11) [not null]
  "account" INT(11) [not null]
  "start" DATE [not null, default: "1970-01-01"]
  "end" DATE [not null, default: "2999-12-31"]
  "del" TINYINT(4) [not null, default: "0"]
  "userid" INT(11) [not null]
  "chop" DATETIME [default: NULL]

Indexes {
  (gid, account, start, end) [unique, name: "Index 2"]
  gid [name: "gid"]
}
}

Table "grouping_share" {
  "userid" INT(11) [not null]
  "groupid" INT(11) [not null]
  "cmd" VARCHAR(12) [not null]

Indexes {
  groupid [name: "FK_grouping_share_grouping"]
  userid [name: "userid"]
  (userid, groupid, cmd) [pk]
}
}

Table "grouping" {
  "id" INT(11) [pk, not null, increment]
  "name" VARCHAR(128) [not null]
  "mt4server" VARCHAR(12) [not null, default: ""]
  "creator" INT(11) [not null, default: "0"]
  "owner" INT(11) [not null, default: "0"]
  "mkt_id" INT(11) [default: NULL]
  "del" INT(11) [not null, default: "0"]

Indexes {
  name [name: "name"]
  mt4server [name: "mt4server"]
  owner [name: "owner"]
}
}

Ref "FK_grouping_share_grouping":"grouping"."id" < "grouping_share"."groupid" [update: cascade, delete: cascade]

Enum "groups_member_role_enum" {
  "ADMIN"
  "MEMBER"
}

Table "groups_member" {
  "id" INT(11) [pk, not null, increment]
  "group_id" INT(11) [not null]
  "user_id" INT(11) [not null]
  "role" groups_member_role_enum [not null]

Indexes {
  user_id [name: "user_id"]
  (group_id, user_id, role) [name: "group_id"]
}
}

Table "groups" {
  "id" INT(11) [pk, not null, increment]
  "name" VARCHAR(100) [not null]
  "creator_id" INT(11) [not null]
  "created_at" DATETIME [default: `utc_timestamp()`]
  "updated_at" DATETIME [default: `utc_timestamp()`]

Indexes {
  name [unique, name: "name"]
  creator_id [name: "creator_id"]
}
}

Table "users" {
  "id" INT(11) [pk, not null, increment]
  "username" VARCHAR(50) [not null]
  "name" VARCHAR(50) [not null]
  "email" VARCHAR(50) [default: NULL]
  "password" VARCHAR(75) [not null]
  "avatar" VARCHAR(75) [default: NULL]
  "language" VARCHAR(30) [default: NULL]
  "aktif" TINYINT(4) [default: NULL]
  "created_at" DATETIME [default: `utc_timestamp()`]
  "updated_at" DATETIME [default: `utc_timestamp()`]

Indexes {
  username [unique, name: "username"]
  email [unique, name: "email"]
  name [name: "name"]
  created_at [name: "created_at"]
  updated_at [name: "updated_at"]
}
}

Ref "groups_member_ibfk_1":"groups"."id" < "groups_member"."group_id" [update: restrict, delete: restrict]

Ref "groups_member_ibfk_2":"users"."id" < "groups_member"."user_id" [update: restrict, delete: restrict]

Ref "groups_ibfk_1":"users"."id" < "groups"."creator_id" [update: restrict, delete: restrict]

Table "logs" {
  "id" INT(11) [pk, not null, increment]
  "userid" INT(11) [not null]
  "action_type" VARCHAR(50) [default: ""]
  "target" VARCHAR(50) [default: NULL]
  "log" TEXT [default: NULL]
  "dt" DATETIME [not null]

Indexes {
  userid [name: "logs_userid"]
  action_type [name: "logs_action_type"]
  dt [name: "logs_dt"]
  target [name: "logs_target"]
}
}

Table "migrations" {
  "id" INT(11) [pk, not null, increment]
  "timestamp" BIGINT(20) [not null]
  "name" VARCHAR(255) [not null]
}

Table "office" {
  "id" TINYINT(4) [pk, not null, increment]
  "location" VARCHAR(10) [not null]
  "address" TEXT [not null]
  "status" TINYINT(4) [not null, default: "1"]
}

Table "reminder" {
  "id" BIGINT(20) [pk, not null, increment]
  "clientid" BIGINT(20) [not null]
  "notes" TEXT [not null]
  "datetime" BIGINT(20) [not null, default: "0"]
  "postphone" BIGINT(20) [not null, default: "0"]
  "userid" BIGINT(20) [not null]
  "active" TINYINT(4) [not null]
  "posted" BIGINT(20) [not null]
}

Table "server" {
  "ID" INT(11) [pk, not null, increment]
  "host" VARCHAR(50) [not null]
  "manager" INT(11) [not null]
}

Table "srcemail_subject" {
  "id" INT(11) [pk, not null, increment]
  "srcemail_id" INT(11) [not null]
  "subject_id" INT(11) [not null]

Indexes {
  (srcemail_id, subject_id) [unique, name: "srcemail_subject_id"]
}
}

Table "srcemail" {
  "id" INT(11) [pk, not null, increment]
  "crm_id" INT(10) [default: NULL]
  "fullname" VARCHAR(50) [not null]
  "email" VARCHAR(50) [not null]
  "phone" VARCHAR(50) [default: NULL]
  "source" INT(11) [not null]
  "support" INT(11) [not null, note: 'email support']
  "event" INT(11) [not null]
  "sbjemail" VARCHAR(50) [not null]
  "content" TEXT [not null]
  "reply" TEXT [default: NULL]
  "user" INT(11) [not null]

Indexes {
  crm_id [name: "crm_id"]
  user [name: "user"]
  support [name: "support"]
  source [name: "source"]
  fullname [name: "fullname"]
  email [name: "email"]
  phone [name: "phone"]
}
}

Table "srcims_tags_queue" {
  "id" INT(11) [pk, not null, increment]
  "ims_id" INT(11) [not null]
  "source" INT(11) [not null]
  "tag" INT(11) [not null]
  "modify_at" TIMESTAMP [default: `current_timestamp()`]
}

Table "srcims_tags" {
  "id" INT(11) [pk, not null, increment]
  "srcims_id" INT(11) [not null]
  "tag_id" INT(11) [not null]

Indexes {
  (srcims_id, tag_id) [unique, name: "srcims_id_tag_id"]
}
}

Table "srcims" {
  "id" INT(11) [pk, not null, increment]
  "crm_id" INT(11) [default: NULL]
  "registered" INT(11) [not null]
  "ims_id" VARCHAR(20) [not null]
  "username" VARCHAR(50) [default: NULL]
  "fullname" VARCHAR(50) [not null]
  "email" VARCHAR(50) [not null]
  "phone" VARCHAR(30) [not null]
  "mobile" VARCHAR(30) [default: NULL]
  "bbm" VARCHAR(20) [default: NULL]
  "birthday" DATE [default: NULL]
  "source" INT(11) [not null]
  "address" TEXT [default: NULL]
  "city" VARCHAR(50) [default: NULL]
  "country" VARCHAR(50) [not null]
  "first_ref" TEXT [default: NULL, note: 'user_ref_url (MRG)']
  "last_ref" TEXT [default: NULL]
  "first_visit" TEXT [default: NULL]
  "goal_ref" TEXT [default: NULL]
  "referrer" VARCHAR(50) [default: NULL]
  "bankname" VARCHAR(20) [default: NULL]
  "bankaccno" VARCHAR(20) [default: NULL]
  "bankreg" VARCHAR(100) [default: NULL]
  "info_regis" TINYINT(4) [not null, default: "1", note: '1: new regis , 2: regis ulang ,  3: international']
  "investor" TINYINT(4) [default: NULL, note: '1: investor']
  "email_ver" TINYINT(4) [not null, default: "0"]
  "notes" TEXT [default: NULL]
  "MODIFY_TIME" BIGINT(20) [not null, default: "0"]

Indexes {
  (ims_id, email, source, username) [unique, name: "UNIK"]
  fullname [name: "fullname"]
  email [name: "email"]
  phone [name: "phone"]
  username [name: "username"]
  crm_id [name: "crm_id"]
  source [name: "source"]
}
}

Table "srclivechat_subject" {
  "id" INT(11) [pk, not null, increment]
  "srclivechat_id" INT(11) [not null]
  "subject_id" INT(11) [not null]

Indexes {
  (srclivechat_id, subject_id) [unique, name: "srclivechat_subject_id"]
}
}

Table "srclivechat" {
  "id" INT(11) [pk, not null, increment]
  "crm_id" INT(11) [default: NULL]
  "fullname" VARCHAR(50) [not null]
  "email" VARCHAR(50) [default: NULL]
  "phone" VARCHAR(20) [default: NULL]
  "online" TINYINT(4) [not null, default: "1", note: '1: on / 2: off']
  "source" INT(11) [not null]
  "media" VARCHAR(10) [default: NULL]
  "event" INT(11) [not null]
  "content" TEXT [not null]
  "response" TEXT [default: NULL]
  "ref_site" TEXT [default: NULL, note: 'from web (offline)']
  "page" TEXT [default: NULL]
  "user" INT(11) [default: NULL, note: 'onduty staff']
  "method" VARCHAR(20) [default: NULL]
  "location" VARCHAR(50) [default: NULL]
  "claim" TINYINT(4) [not null, default: "0"]
  "approve" TINYINT(4) [not null, default: "0"]
  "MODIFY_TIME" BIGINT(20) [default: "0"]

Indexes {
  crm_id [name: "crm_id"]
  user [name: "user"]
  source [name: "source"]
  email [name: "email"]
}
}

Table "srcmanual_from" {
  "id" INT(11) [pk, not null, increment]
  "name" VARCHAR(50) [not null]
}

Table "srcmanual" {
  "id" INT(11) [pk, not null, increment]
  "crm_id" INT(11) [default: NULL]
  "fullname" VARCHAR(50) [not null]
  "email" VARCHAR(50) [default: NULL]
  "phone" VARCHAR(50) [default: NULL]
  "address" TEXT [default: NULL]
  "event" INT(11) [not null]
  "source" INT(11) [not null]
  "notes" TEXT [default: NULL]
  "user" INT(11) [not null]
  "broker" INT(11) [default: NULL]

Indexes {
  source [name: "source"]
  user [name: "admin"]
  crm_id [name: "crm_id"]
}
}

Table "srcreqcall" {
  "id" INT(11) [pk, not null, increment]
  "crm_id" INT(11) [default: NULL]
  "req_id" INT(11) [not null]
  "ims_id" INT(11) [not null]
  "email" VARCHAR(50) [not null, default: ""]
  "phone" VARCHAR(50) [not null, default: ""]
  "waktu" DATETIME [not null]
  "comments" TEXT [default: NULL]
  "notes" TEXT [default: NULL]
  "source" VARCHAR(50) [default: "callback"]
  "created_at" DATETIME [not null]
  "updated_at" DATETIME [default: NULL]

Indexes {
  req_id [unique, name: "req_id"]
  crm_id [name: "crm_id"]
  ims_id [name: "ims_id"]
  created_at [name: "created_at"]
  updated_at [name: "updated_at"]
}
}

Table "subject_broker" {
  "id" INT(11) [pk, not null, increment]
  "subject_id" INT(11) [not null]
  "broker_id" INT(11) [not null]

Indexes {
  (subject_id, broker_id) [unique, name: "subject_broker_id"]
}
}

Table "subject" {
  "id" INT(11) [pk, not null, increment]
  "name" VARCHAR(50) [not null]
  "user" INT(11) [default: NULL]

Indexes {
  name [unique, name: "name"]
}
}

Table "tags" {
  "id" INT(11) [pk, not null, increment]
  "tagname" VARCHAR(50) [not null]
  "descriptions" VARCHAR(50) [default: NULL]
  "status" TINYINT(4) [not null, default: "1"]
}

Table "user_details" {
  "userid" INT(11) [pk, not null]
  "gender" TINYINT(4) [default: NULL, note: '1:m 2:f']
  "nickname" VARCHAR(50) [not null]
  "office" INT(11) [not null]
  "collapsed" TINYINT(4) [not null, default: "0"]
  "notif" TINYINT(4) [not null, default: "1"]

Indexes {
  office [name: "office"]
}
}

Table "users_groups_rules" {
  "groupid" INT(11) [not null]
  "ruleid" INT(11) [not null]

Indexes {
  groupid [name: "groupid"]
  (groupid, ruleid) [pk]
}
}

Table "users_groups" {
  "id" INT(11) [pk, not null]
  "path" VARCHAR(1024) [default: NULL]
  "name" VARCHAR(50) [default: NULL]

Indexes {
  name [unique, name: "name"]
  path [unique, name: "path"]
}
}

Table "users_mmb" {
  "user_id" INT(11) [pk, not null]
  "mmb_id" INT(11) [default: NULL]

Indexes {
  mmb_id [unique, name: "mmb_id"]
}
}

Table "users_mrg" {
  "user_id" INT(11) [pk, not null]
  "mrg_id" INT(11) [default: NULL]

Indexes {
  mrg_id [unique, name: "mrg_id"]
}
}

Table "users_query_share" {
  "id" INT(11) [pk, not null, increment]
  "user_id" INT(11) [not null]
  "query_id" INT(11) [not null]
  "created_at" DATETIME [default: `utc_timestamp()`]

Indexes {
  user_id [name: "user_id"]
  query_id [name: "query_id"]
  created_at [name: "created_at"]
}
}

Table "users_query" {
  "id" INT(11) [pk, not null, increment]
  "user_id" INT(11) [not null]
  "widget_id" VARCHAR(50) [not null]
  "title" VARCHAR(255) [not null]
  "query_text" TEXT [not null]
  "created_at" DATETIME [default: `utc_timestamp()`]

Indexes {
  user_id [name: "user_id"]
  widget_id [name: "widget_id"]
  title [name: "title"]
  created_at [name: "created_at"]
}
}

Table "users_rules" {
  "id" INT(11) [pk, not null]
  "rules" VARCHAR(128) [not null]
  "state" TINYINT(4) [not null, default: "0"]

Indexes {
  rules [unique, name: "rules"]
  state [name: "state"]
}
}

Table "users_spesific_rules" {
  "userid" INT(11) [not null]
  "ruleid" INT(11) [not null]

Indexes {
  userid [name: "userid"]
  (userid, ruleid) [pk]
}
}

Table "users_tf" {
  "user_id" INT(11) [pk, not null]
  "tf_id" INT(11) [default: NULL]

Indexes {
  tf_id [unique, name: "tf_id"]
}
}

Table "users_usergroups" {
  "userid" INT(11) [not null, default: "0"]
  "group" INT(11) [not null, default: "0"]

Indexes {
  (userid, group) [pk]
}
}




